<svg id="Layer_1" data-name="Layer 1" xmlns="http://www.w3.org/2000/svg" width="569.09" height="550.28"
     viewBox="0 0 569.09 550.28">
    <defs>
        <style>
            .cls-1 {
               fill: #ce375c;
            }

            .cls-2 {
                fill: #e3b34c;
            }

            .cls-3 {
              fill: #5bb381;
            }
        </style>
    </defs>
    <g id="id01pi">
        <path id="id01piTop" class="cls-1"
              d="M334.15,434l-75-128.93a21.77,21.77,0,0,1,18.11-33.85l455.23-6.38a21.77,21.77,0,0,1,21.77,21.77l8.19,53.8a13.1,13.1,0,0,1,.18,2.8,21.78,21.78,0,0,1-22.36,20.35L408.33,347.32a21.78,21.78,0,0,0-22,17.69l-7.72,62.75A21.78,21.78,0,0,1,350,444.21L345,442.47A21.87,21.87,0,0,1,334.15,434Z"
              transform="translate(-255.46 -264.86)"/>
        <path id="id01piRight" class="cls-2"
              d="M623.1,413.6l38.76,296.8a19.44,19.44,0,0,0,1.81,6c5.89,12,30.44,55.91,78.33,64.22,55.62,9.65,125.58-8.78,48.27-97.38-78.7-90.2-114.46-225.39-115.86-231.52-.09-.38-.5-1.66-.62-2-10-31.21-25.13-43.65-32.43-46.2-1.62-.56-8-2.05-11.91-.13C624.87,405.64,622.92,411.57,623.1,413.6Z"
              transform="translate(-255.46 -264.86)"/>
        <path id="id01piBottom" class="cls-3"
              d="M639,742.87c-37.42-.92-136.57-4.28-174.59-5.58a16.63,16.63,0,0,0-17.07,14.5l-5.76,44.52A16.69,16.69,0,0,0,460.34,815l174.58-23.7A18.86,18.86,0,0,0,651.18,774l1.23-16.28A13.83,13.83,0,0,0,639,742.87Z"
              transform="translate(-255.46 -264.86)"/>
        <path id="id)1piLeft" class="cls-2"
              d="M473,413.6,434.25,710.4a19.42,19.42,0,0,1-1.8,6c-5.89,12-30.44,55.91-78.34,64.22-55.61,9.65-125.58-8.78-48.27-97.38,78.7-90.2,114.46-225.39,115.86-231.52.09-.38.5-1.66.62-2,10-31.21,25.14-43.65,32.43-46.2,1.62-.56,8.05-2.05,11.91-.13C471.24,405.64,473.19,411.57,473,413.6Z"
              transform="translate(-255.46 -264.86)"/>
    </g>
</svg>
